<svg width="194" height="24" viewBox="0 0 194 24" fill="none" xmlns="http://www.w3.org/2000/svg">
<path fill-rule="evenodd" clip-rule="evenodd" d="M23.611 22.6995V1.30233H35.8056C38.8039 1.30233 41.179 1.954 42.8779 3.29379C44.5974 4.62665 45.4494 6.35235 45.4494 8.44437C45.4494 9.83676 45.0707 11.0992 44.3063 12.225L44.305 12.2269C43.5365 13.3383 42.4141 14.2062 40.9483 14.8288C39.5068 15.4536 37.8027 15.7599 35.8496 15.7599H29.6166V22.6995H23.611ZM38.1922 11.2142C39.0127 10.5877 39.4438 9.6975 39.4438 8.5022C39.4438 7.32732 39.0137 6.45789 38.1959 5.85087C37.3748 5.24136 36.1855 4.91672 34.5742 4.91672H29.6166V12.1744H34.5742C36.2152 12.1744 37.3987 11.8402 38.188 11.2175L38.1922 11.2142Z" fill="#0D0D0D"/>
<path d="M18.8793 1.41911V5.4608H5.82358V22.8163H0V1.41911H18.8793Z" fill="#0D0D0D"/>
<path d="M102.246 1.30023V5.38155H94.9662V22.6974H89.1426V5.38155H81.8631V1.30023H102.246Z" fill="#0D0D0D"/>
<path d="M123.08 17.8236C123.792 17.2953 124.488 16.6085 125.167 15.7632L129.438 18.0217C127.399 20.4785 124.924 22.0766 122.012 22.8163C120.589 23.1069 119.182 23.2522 117.79 23.2522C115.752 23.2522 113.989 22.988 112.501 22.4597C110.171 21.72 108.359 20.3992 107.065 18.4972C105.804 16.5688 105.173 14.4291 105.173 12.0781C105.173 9.93836 105.658 7.99676 106.629 6.25328C107.631 4.50981 109.12 3.13616 111.093 2.13234C113.067 1.20777 115.267 0.745492 117.693 0.745492C119.085 0.745492 120.427 0.917195 121.721 1.26061C123.048 1.5776 124.245 2.0531 125.313 2.68709C126.93 3.66449 128.16 5.01172 129.001 6.72878C129.874 8.41942 130.311 10.2289 130.311 12.1573C130.311 12.6064 130.295 12.9366 130.263 13.1479H111.287C111.514 15.8424 112.646 17.6387 114.684 18.5369C115.752 18.9331 116.933 19.1312 118.227 19.1312C119.068 19.1312 119.877 19.052 120.654 18.8935C121.592 18.6822 122.401 18.3255 123.08 17.8236ZM117.693 4.86643C116.27 4.86643 115.024 5.18342 113.957 5.81741C112.662 6.53065 111.837 7.79864 111.482 9.62136H124.051C123.889 8.43263 123.42 7.44202 122.643 6.64953C121.899 5.83063 120.88 5.3023 119.586 5.06455C118.874 4.93247 118.243 4.86643 117.693 4.86643Z" fill="#0D0D0D"/>
<path d="M151.428 17.0708C151.881 16.4632 152.204 15.7499 152.398 14.931L158.125 16.2386C157.639 17.6387 156.814 18.9067 155.65 20.0426C154.517 21.1521 153.175 21.9578 151.622 22.4597C150.069 23.0144 148.37 23.2918 146.526 23.2918C144.65 23.2918 142.951 23.0144 141.43 22.4597C139.133 21.6936 137.354 20.3596 136.092 18.4576C134.83 16.5292 134.2 14.4159 134.2 12.1177C134.2 9.81949 134.83 7.69298 136.092 5.73817C137.354 3.78337 139.133 2.3833 141.43 1.53798C142.983 0.983236 144.666 0.705872 146.478 0.705872C148.289 0.705872 150.004 0.983236 151.622 1.53798C153.336 2.14555 154.76 3.05692 155.892 4.27207C157.025 5.4608 157.834 6.82123 158.319 8.35337L152.398 9.14587C152.172 8.2213 151.848 7.48164 151.428 6.9269C150.91 6.24007 150.198 5.72496 149.292 5.38155C148.419 5.01172 147.481 4.82681 146.478 4.82681C145.507 4.82681 144.569 5.01172 143.663 5.38155C142.789 5.75137 142.11 6.26649 141.625 6.9269C141.204 7.48164 140.88 8.2213 140.654 9.14587C140.428 10.044 140.314 11.0082 140.314 12.0385C140.314 13.0423 140.428 13.9933 140.654 14.8914C140.88 15.7896 141.204 16.516 141.625 17.0708C142.142 17.7576 142.838 18.2859 143.711 18.6557C144.617 18.9991 145.572 19.1708 146.575 19.1708C147.545 19.1708 148.467 18.9859 149.341 18.6161C150.247 18.2463 150.942 17.7312 151.428 17.0708Z" fill="#0D0D0D"/>
<path d="M168.3 13.6704V22.6974H162.477V1.30023H168.3V9.62136H180.433L186.305 1.30023H192.711L185.14 11.2533L193.681 22.6974H187.13L180.481 13.6704H168.3Z" fill="#0D0D0D"/>
<path fill-rule="evenodd" clip-rule="evenodd" d="M75.9198 20.6063C75.8686 20.6443 75.8203 20.6822 75.7691 20.7196C75.8117 20.6871 75.8572 20.6541 75.8999 20.6216C75.9056 20.6161 75.9141 20.6118 75.9198 20.6063ZM77.4781 6.03362C76.207 4.32853 74.444 3.018 72.1635 2.09898C69.8375 1.17751 67.156 0.708187 64.0963 0.708187C61.1163 0.708187 58.4718 1.19159 56.1486 2.14309C53.8255 3.09458 52.0426 4.42227 50.7715 6.12307C49.4663 7.82633 48.8094 9.7765 48.8094 12.0012C48.8094 14.2583 49.4691 16.2238 50.7687 17.9191C52.0426 19.626 53.8226 20.9531 56.1458 21.9039C58.469 22.826 61.1163 23.2941 64.0963 23.2941C67.2328 23.2941 69.954 22.8242 72.2744 21.9033C74.5549 20.9837 76.298 19.6897 77.5293 18.0238C78.0098 17.3615 78.3965 16.6526 78.6923 15.8954C79.1501 14.7159 79.3832 13.4201 79.3832 12.0012C79.3832 9.67419 78.7406 7.69399 77.4781 6.03362ZM53.9582 12.0012C53.9582 14.1394 54.9933 15.8206 57.0434 16.9682C59.0425 18.0545 60.9429 18.5654 64.0963 18.5654C65.811 18.5654 66.665 18.4116 68.0583 18.0955C69.1701 17.8437 70.1739 17.4889 71.0696 17.027C73.1795 15.9039 74.2345 14.1995 74.2345 12.0012C74.2345 9.86289 73.1966 8.19394 71.1436 7.07702C69.1189 5.96562 67.2186 5.43687 64.0963 5.43687C60.9798 5.43687 59.0993 5.94846 57.1089 7.02801C55.016 8.14432 53.9582 9.83042 53.9582 12.0012Z" fill="#0D0D0D"/>
</svg>
