<svg width="160" height="40" viewBox="0 0 160 40" fill="none" xmlns="http://www.w3.org/2000/svg">
<path d="M8.07955 5H7.02273C6.96023 4.69602 6.85085 4.42898 6.6946 4.19886C6.54119 3.96875 6.35369 3.77557 6.1321 3.61932C5.91335 3.46023 5.67045 3.34091 5.40341 3.26136C5.13636 3.18182 4.85795 3.14205 4.56818 3.14205C4.03977 3.14205 3.56108 3.27557 3.1321 3.54261C2.70597 3.80966 2.36648 4.20312 2.11364 4.72301C1.86364 5.2429 1.73864 5.88068 1.73864 6.63636C1.73864 7.39205 1.86364 8.02983 2.11364 8.54972C2.36648 9.0696 2.70597 9.46307 3.1321 9.73011C3.56108 9.99716 4.03977 10.1307 4.56818 10.1307C4.85795 10.1307 5.13636 10.0909 5.40341 10.0114C5.67045 9.93182 5.91335 9.81392 6.1321 9.65767C6.35369 9.49858 6.54119 9.30398 6.6946 9.07386C6.85085 8.84091 6.96023 8.57386 7.02273 8.27273H8.07955C8 8.71875 7.85511 9.1179 7.64489 9.47017C7.43466 9.82244 7.1733 10.1222 6.8608 10.3693C6.5483 10.6136 6.19744 10.7997 5.80824 10.9276C5.42188 11.0554 5.00852 11.1193 4.56818 11.1193C3.82386 11.1193 3.16193 10.9375 2.58239 10.5739C2.00284 10.2102 1.54688 9.69318 1.21449 9.02273C0.882102 8.35227 0.715909 7.55682 0.715909 6.63636C0.715909 5.71591 0.882102 4.92045 1.21449 4.25C1.54688 3.57955 2.00284 3.0625 2.58239 2.69886C3.16193 2.33523 3.82386 2.15341 4.56818 2.15341C5.00852 2.15341 5.42188 2.21733 5.80824 2.34517C6.19744 2.47301 6.5483 2.66051 6.8608 2.90767C7.1733 3.15199 7.43466 3.45028 7.64489 3.80256C7.85511 4.15199 8 4.55114 8.07955 5ZM11.5771 11.1534C11.1623 11.1534 10.7859 11.0753 10.4478 10.919C10.1097 10.7599 9.84126 10.5312 9.6424 10.233C9.44354 9.93182 9.34411 9.56818 9.34411 9.14205C9.34411 8.76705 9.41797 8.46307 9.5657 8.23011C9.71342 7.99432 9.91087 7.80966 10.158 7.67614C10.4052 7.54261 10.6779 7.44318 10.9762 7.37784C11.2773 7.30966 11.5799 7.25568 11.8839 7.21591C12.2816 7.16477 12.604 7.12642 12.8512 7.10085C13.1012 7.07244 13.283 7.02557 13.3967 6.96023C13.5131 6.89489 13.5714 6.78125 13.5714 6.61932V6.58523C13.5714 6.16477 13.4563 5.83807 13.2262 5.60511C12.9989 5.37216 12.6538 5.25568 12.1907 5.25568C11.7106 5.25568 11.3342 5.3608 11.0614 5.57102C10.7887 5.78125 10.5969 6.00568 10.4862 6.24432L9.53161 5.90341C9.70206 5.50568 9.92933 5.19602 10.2134 4.97443C10.5004 4.75 10.8129 4.59375 11.1509 4.50568C11.4918 4.41477 11.8271 4.36932 12.1566 4.36932C12.3668 4.36932 12.6083 4.39489 12.881 4.44602C13.1566 4.49432 13.4222 4.59517 13.6779 4.74858C13.9364 4.90199 14.1509 5.13352 14.3214 5.44318C14.4918 5.75284 14.5771 6.16761 14.5771 6.6875V11H13.5714V10.1136H13.5202C13.4521 10.2557 13.3384 10.4077 13.1793 10.5696C13.0202 10.7315 12.8086 10.8693 12.5444 10.983C12.2802 11.0966 11.9577 11.1534 11.5771 11.1534ZM11.7305 10.25C12.1282 10.25 12.4634 10.1719 12.7362 10.0156C13.0117 9.85938 13.2191 9.65767 13.3583 9.41051C13.5004 9.16335 13.5714 8.90341 13.5714 8.63068V7.71023C13.5288 7.76136 13.435 7.80824 13.2901 7.85085C13.1481 7.89062 12.9833 7.92614 12.7958 7.95739C12.6112 7.9858 12.4308 8.01136 12.2546 8.03409C12.0813 8.05398 11.9407 8.07102 11.8327 8.08523C11.5714 8.11932 11.3271 8.17472 11.0998 8.25142C10.8754 8.32528 10.6935 8.4375 10.5543 8.58807C10.418 8.7358 10.3498 8.9375 10.3498 9.19318C10.3498 9.54261 10.479 9.80682 10.7376 9.9858C10.9989 10.1619 11.3299 10.25 11.7305 10.25ZM17.4183 9.51705L20.5717 4.45455H21.7308V11H20.7251V5.9375L17.5888 11H16.4126V4.45455H17.4183V9.51705ZM19.907 2.27273H20.8445C20.8445 2.73295 20.6854 3.10937 20.3672 3.40199C20.049 3.6946 19.6172 3.84091 19.0717 3.84091C18.5348 3.84091 18.1072 3.6946 17.7891 3.40199C17.4737 3.10937 17.3161 2.73295 17.3161 2.27273H18.2536C18.2536 2.49432 18.3146 2.68892 18.4368 2.85653C18.5618 3.02415 18.7734 3.10795 19.0717 3.10795C19.37 3.10795 19.5831 3.02415 19.7109 2.85653C19.8416 2.68892 19.907 2.49432 19.907 2.27273ZM22.6822 5.39205V4.45455H28.0004V5.39205H25.8526V11H24.8469V5.39205H22.6822ZM35.5014 11.1364C34.8878 11.1364 34.3594 10.9915 33.9162 10.7017C33.473 10.4119 33.1321 10.0128 32.8935 9.50426C32.6548 8.99574 32.5355 8.41477 32.5355 7.76136C32.5355 7.09659 32.6577 6.50994 32.902 6.00142C33.1491 5.49006 33.4929 5.09091 33.9332 4.80398C34.3764 4.5142 34.8935 4.36932 35.4844 4.36932C35.9446 4.36932 36.3594 4.45455 36.7287 4.625C37.098 4.79545 37.4006 5.03409 37.6364 5.34091C37.8722 5.64773 38.0185 6.00568 38.0753 6.41477H37.0696C36.9929 6.11648 36.8224 5.85227 36.5582 5.62216C36.2969 5.3892 35.9446 5.27273 35.5014 5.27273C35.1094 5.27273 34.7656 5.375 34.4702 5.57955C34.1776 5.78125 33.9489 6.06676 33.7841 6.43608C33.6222 6.80256 33.5412 7.23295 33.5412 7.72727C33.5412 8.23295 33.6207 8.6733 33.7798 9.0483C33.9418 9.4233 34.169 9.71449 34.4616 9.92188C34.7571 10.1293 35.1037 10.233 35.5014 10.233C35.7628 10.233 36 10.1875 36.2131 10.0966C36.4261 10.0057 36.6065 9.875 36.7543 9.70455C36.902 9.53409 37.0071 9.32955 37.0696 9.09091H38.0753C38.0185 9.47727 37.8778 9.82528 37.6534 10.1349C37.4318 10.4418 37.1378 10.6861 36.7713 10.8679C36.4077 11.0469 35.9844 11.1364 35.5014 11.1364ZM38.8466 12.875V10.0625H39.392C39.5256 9.9233 39.6406 9.77273 39.7372 9.6108C39.8338 9.44886 39.9176 9.2571 39.9886 9.03551C40.0625 8.81108 40.125 8.53835 40.1761 8.21733C40.2273 7.89347 40.2727 7.50284 40.3125 7.04545L40.5341 4.45455H44.6932V10.0625H45.6989V12.875H44.6932V11H39.8523V12.875H38.8466ZM40.5341 10.0625H43.6875V5.39205H41.4716L41.3011 7.04545C41.2301 7.73011 41.142 8.32812 41.0369 8.83949C40.9318 9.35085 40.7642 9.75852 40.5341 10.0625ZM49.7781 11.1364C49.1474 11.1364 48.6033 10.9972 48.146 10.7188C47.6914 10.4375 47.3406 10.0455 47.0934 9.54261C46.8491 9.03693 46.7269 8.44886 46.7269 7.77841C46.7269 7.10795 46.8491 6.51705 47.0934 6.00568C47.3406 5.49148 47.6843 5.09091 48.1246 4.80398C48.5678 4.5142 49.0849 4.36932 49.6758 4.36932C50.0167 4.36932 50.3533 4.42614 50.6857 4.53977C51.0181 4.65341 51.3207 4.83807 51.5934 5.09375C51.8661 5.34659 52.0835 5.68182 52.2454 6.09943C52.4073 6.51705 52.4883 7.03125 52.4883 7.64205V8.06818H47.4428V7.19886H51.4656C51.4656 6.82955 51.3917 6.5 51.244 6.21023C51.0991 5.92045 50.8917 5.69176 50.6218 5.52415C50.3548 5.35653 50.0394 5.27273 49.6758 5.27273C49.2752 5.27273 48.9286 5.37216 48.636 5.57102C48.3462 5.76705 48.1232 6.02273 47.967 6.33807C47.8107 6.65341 47.7326 6.99148 47.7326 7.35227V7.93182C47.7326 8.42614 47.8178 8.84517 47.9883 9.18892C48.1616 9.52983 48.4016 9.78977 48.7085 9.96875C49.0153 10.1449 49.3718 10.233 49.7781 10.233C50.0423 10.233 50.2809 10.196 50.494 10.1222C50.7099 10.0455 50.896 9.93182 51.0522 9.78125C51.2085 9.62784 51.3292 9.4375 51.4144 9.21023L52.386 9.48295C52.2837 9.8125 52.1119 10.1023 51.8704 10.3523C51.6289 10.5994 51.3306 10.7926 50.9755 10.9318C50.6204 11.0682 50.2212 11.1364 49.7781 11.1364ZM53.4386 11V10.0625H53.6772C53.8732 10.0625 54.0366 10.0241 54.1673 9.94744C54.2979 9.8679 54.4031 9.73011 54.4826 9.53409C54.565 9.33523 54.6275 9.05966 54.6701 8.70739C54.7156 8.35227 54.7482 7.90057 54.7681 7.35227L54.8874 4.45455H59.2511V11H58.2454V5.39205H55.842L55.7397 7.72727C55.717 8.2642 55.6687 8.73722 55.5948 9.14631C55.5238 9.55256 55.4144 9.89347 55.2667 10.169C55.1218 10.4446 54.9286 10.652 54.6871 10.7912C54.4457 10.9304 54.1431 11 53.7795 11H53.4386ZM63.0224 11.1534C62.6076 11.1534 62.2312 11.0753 61.8931 10.919C61.555 10.7599 61.2866 10.5312 61.0877 10.233C60.8888 9.93182 60.7894 9.56818 60.7894 9.14205C60.7894 8.76705 60.8633 8.46307 61.011 8.23011C61.1587 7.99432 61.3562 7.80966 61.6033 7.67614C61.8505 7.54261 62.1232 7.44318 62.4215 7.37784C62.7227 7.30966 63.0252 7.25568 63.3292 7.21591C63.7269 7.16477 64.0494 7.12642 64.2965 7.10085C64.5465 7.07244 64.7283 7.02557 64.842 6.96023C64.9585 6.89489 65.0167 6.78125 65.0167 6.61932V6.58523C65.0167 6.16477 64.9016 5.83807 64.6715 5.60511C64.4442 5.37216 64.0991 5.25568 63.636 5.25568C63.1559 5.25568 62.7795 5.3608 62.5067 5.57102C62.234 5.78125 62.0423 6.00568 61.9315 6.24432L60.9769 5.90341C61.1474 5.50568 61.3746 5.19602 61.6587 4.97443C61.9457 4.75 62.2582 4.59375 62.5962 4.50568C62.9371 4.41477 63.2724 4.36932 63.6019 4.36932C63.8121 4.36932 64.0536 4.39489 64.3263 4.44602C64.6019 4.49432 64.8675 4.59517 65.1232 4.74858C65.3817 4.90199 65.5962 5.13352 65.7667 5.44318C65.9371 5.75284 66.0224 6.16761 66.0224 6.6875V11H65.0167V10.1136H64.9656C64.8974 10.2557 64.7837 10.4077 64.6246 10.5696C64.4656 10.7315 64.2539 10.8693 63.9897 10.983C63.7255 11.0966 63.4031 11.1534 63.0224 11.1534ZM63.1758 10.25C63.5735 10.25 63.9087 10.1719 64.1815 10.0156C64.457 9.85938 64.6644 9.65767 64.8036 9.41051C64.9457 9.16335 65.0167 8.90341 65.0167 8.63068V7.71023C64.9741 7.76136 64.8803 7.80824 64.7354 7.85085C64.5934 7.89062 64.4286 7.92614 64.2411 7.95739C64.0565 7.9858 63.8761 8.01136 63.6999 8.03409C63.5266 8.05398 63.386 8.07102 63.2781 8.08523C63.0167 8.11932 62.7724 8.17472 62.5451 8.25142C62.3207 8.32528 62.1388 8.4375 61.9996 8.58807C61.8633 8.7358 61.7951 8.9375 61.7951 9.19318C61.7951 9.54261 61.9244 9.80682 62.1829 9.9858C62.4442 10.1619 62.7752 10.25 63.1758 10.25ZM72.2386 7.26705V8.20455H68.625V7.26705H72.2386ZM68.8636 4.45455V11H67.858V4.45455H68.8636ZM73.0057 4.45455V11H72V4.45455H73.0057ZM78.2173 11V4.45455H80.8935C81.598 4.45455 82.1577 4.61364 82.5724 4.93182C82.9872 5.25 83.1946 5.67045 83.1946 6.19318C83.1946 6.59091 83.0767 6.89915 82.8409 7.1179C82.6051 7.33381 82.3026 7.48011 81.9332 7.55682C82.1747 7.59091 82.4091 7.67614 82.6364 7.8125C82.8665 7.94886 83.0568 8.13636 83.2074 8.375C83.358 8.6108 83.4332 8.90057 83.4332 9.24432C83.4332 9.57955 83.348 9.87926 83.1776 10.1435C83.0071 10.4077 82.7628 10.6165 82.4446 10.7699C82.1264 10.9233 81.7457 11 81.3026 11H78.2173ZM79.1719 10.0795H81.3026C81.6491 10.0795 81.9205 9.99716 82.1165 9.83239C82.3125 9.66761 82.4105 9.44318 82.4105 9.15909C82.4105 8.82102 82.3125 8.5554 82.1165 8.36222C81.9205 8.16619 81.6491 8.06818 81.3026 8.06818H79.1719V10.0795ZM79.1719 7.19886H80.8935C81.1634 7.19886 81.3949 7.16193 81.5881 7.08807C81.7812 7.01136 81.929 6.90341 82.0312 6.7642C82.1364 6.62216 82.1889 6.45455 82.1889 6.26136C82.1889 5.9858 82.0739 5.76989 81.8438 5.61364C81.6136 5.45455 81.2969 5.375 80.8935 5.375H79.1719V7.19886ZM90.9897 11.1364C90.3761 11.1364 89.8477 10.9915 89.4045 10.7017C88.9613 10.4119 88.6204 10.0128 88.3817 9.50426C88.1431 8.99574 88.0238 8.41477 88.0238 7.76136C88.0238 7.09659 88.146 6.50994 88.3903 6.00142C88.6374 5.49006 88.9812 5.09091 89.4215 4.80398C89.8647 4.5142 90.3817 4.36932 90.9727 4.36932C91.4329 4.36932 91.8477 4.45455 92.217 4.625C92.5863 4.79545 92.8888 5.03409 93.1246 5.34091C93.3604 5.64773 93.5067 6.00568 93.5636 6.41477H92.5579C92.4812 6.11648 92.3107 5.85227 92.0465 5.62216C91.7852 5.3892 91.4329 5.27273 90.9897 5.27273C90.5977 5.27273 90.2539 5.375 89.9585 5.57955C89.6658 5.78125 89.4371 6.06676 89.2724 6.43608C89.1104 6.80256 89.0295 7.23295 89.0295 7.72727C89.0295 8.23295 89.109 8.6733 89.2681 9.0483C89.43 9.4233 89.6573 9.71449 89.9499 9.92188C90.2454 10.1293 90.592 10.233 90.9897 10.233C91.2511 10.233 91.4883 10.1875 91.7013 10.0966C91.9144 10.0057 92.0948 9.875 92.2425 9.70455C92.3903 9.53409 92.4954 9.32955 92.5579 9.09091H93.5636C93.5067 9.47727 93.3661 9.82528 93.1417 10.1349C92.9201 10.4418 92.6261 10.6861 92.2596 10.8679C91.896 11.0469 91.4727 11.1364 90.9897 11.1364ZM94.5181 5.39205V4.45455H99.8363V5.39205H97.6886V11H96.6829V5.39205H94.5181ZM101.951 13.4545C101.781 13.4545 101.629 13.4403 101.495 13.4119C101.362 13.3864 101.269 13.3608 101.218 13.3352L101.474 12.4489C101.718 12.5114 101.934 12.5341 102.121 12.517C102.309 12.5 102.475 12.4162 102.62 12.2656C102.768 12.1179 102.903 11.8778 103.025 11.5455L103.212 11.0341L100.792 4.45455H101.883L103.69 9.67045H103.758L105.565 4.45455H106.656L103.877 11.9545C103.752 12.2926 103.597 12.5724 103.413 12.794C103.228 13.0185 103.013 13.1847 102.769 13.2926C102.528 13.4006 102.255 13.4545 101.951 13.4545ZM106.733 12.875V10.0625H107.279C107.412 9.9233 107.527 9.77273 107.624 9.6108C107.721 9.44886 107.804 9.2571 107.875 9.03551C107.949 8.81108 108.012 8.53835 108.063 8.21733C108.114 7.89347 108.159 7.50284 108.199 7.04545L108.421 4.45455H112.58V10.0625H113.586V12.875H112.58V11H107.739V12.875H106.733ZM108.421 10.0625H111.574V5.39205H109.358L109.188 7.04545C109.117 7.73011 109.029 8.32812 108.924 8.83949C108.819 9.35085 108.651 9.75852 108.421 10.0625ZM115.926 9.51705L119.08 4.45455H120.239V11H119.233V5.9375L116.097 11H114.92V4.45455H115.926V9.51705ZM123.086 9.51705L126.24 4.45455H127.399V11H126.393V5.9375L123.257 11H122.081V4.45455H123.086V9.51705Z" fill="white"/>
<path fill-rule="evenodd" clip-rule="evenodd" d="M19.505 37.1281V19.4916H29.579C32.0559 19.4916 34.0179 20.0288 35.4214 21.1331C36.8419 22.2317 37.5457 23.6541 37.5457 25.3784C37.5457 26.5261 37.2329 27.5666 36.6014 28.4945L36.6003 28.4961C35.9655 29.4122 35.0383 30.1275 33.8274 30.6407C32.6365 31.1557 31.2288 31.4082 29.6153 31.4082H24.4662V37.1281H19.505ZM31.5506 27.6614C32.2284 27.145 32.5845 26.4113 32.5845 25.4261C32.5845 24.4577 32.2292 23.7411 31.5536 23.2407C30.8753 22.7383 29.8928 22.4708 28.5617 22.4708H24.4662V28.4529H28.5617C29.9173 28.4529 30.895 28.1774 31.547 27.6641L31.5506 27.6614Z" fill="white"/>
<path d="M15.5962 19.5879V22.9192H4.81085V37.2244H0V19.5879H15.5962Z" fill="white"/>
<path d="M84.4651 19.4899V22.8539H78.4515V37.1264H73.6406V22.8539H67.6271V19.4899H84.4651Z" fill="white"/>
<path d="M101.676 33.1092C102.264 32.6737 102.839 32.1076 103.4 31.4108L106.928 33.2725C105.244 35.2974 103.2 36.6147 100.794 37.2244C99.6184 37.4639 98.4558 37.5836 97.3065 37.5836C95.6227 37.5836 94.1661 37.3659 92.9367 36.9304C91.0123 36.3208 89.5156 35.2321 88.4466 33.6644C87.4042 32.0749 86.883 30.3113 86.883 28.3735C86.883 26.6098 87.2839 25.0095 88.0857 23.5724C88.9143 22.1354 90.1437 21.0031 91.7741 20.1758C93.4044 19.4137 95.2218 19.0327 97.2264 19.0327C98.3756 19.0327 99.4848 19.1742 100.554 19.4572C101.65 19.7185 102.639 20.1104 103.521 20.633C104.857 21.4386 105.873 22.5491 106.567 23.9643C107.289 25.3578 107.65 26.8493 107.65 28.4388C107.65 28.8089 107.637 29.0811 107.61 29.2553H91.9344C92.1215 31.4762 93.057 32.9568 94.7408 33.6971C95.6227 34.0237 96.5983 34.187 97.6674 34.187C98.3623 34.187 99.0304 34.1216 99.6719 33.991C100.447 33.8168 101.115 33.5229 101.676 33.1092ZM97.2264 22.4293C96.0504 22.4293 95.0214 22.6906 94.1394 23.2131C93.0703 23.801 92.3888 24.8462 92.0948 26.3485H102.478C102.345 25.3687 101.957 24.5522 101.316 23.899C100.701 23.224 99.859 22.7886 98.7899 22.5926C98.2019 22.4837 97.6807 22.4293 97.2264 22.4293Z" fill="white"/>
<path d="M125.094 32.4886C125.468 31.9878 125.736 31.4 125.896 30.725L130.627 31.8028C130.226 32.9568 129.544 34.0019 128.582 34.9381C127.647 35.8526 126.538 36.5167 125.255 36.9304C123.972 37.3876 122.569 37.6163 121.045 37.6163C119.495 37.6163 118.092 37.3876 116.836 36.9304C114.938 36.299 113.468 35.1994 112.426 33.6317C111.383 32.0423 110.862 30.3004 110.862 28.4061C110.862 26.5118 111.383 24.7591 112.426 23.1478C113.468 21.5366 114.938 20.3826 116.836 19.6859C118.119 19.2286 119.508 19 121.005 19C122.502 19 123.918 19.2286 125.255 19.6859C126.671 20.1866 127.847 20.9378 128.783 21.9394C129.718 22.9192 130.386 24.0405 130.787 25.3034L125.896 25.9566C125.709 25.1945 125.442 24.5849 125.094 24.1276C124.667 23.5615 124.079 23.1369 123.33 22.8539C122.609 22.5491 121.834 22.3966 121.005 22.3966C120.203 22.3966 119.428 22.5491 118.68 22.8539C117.958 23.1587 117.397 23.5833 116.996 24.1276C116.649 24.5849 116.381 25.1945 116.194 25.9566C116.007 26.6969 115.914 27.4916 115.914 28.3408C115.914 29.1682 116.007 29.952 116.194 30.6923C116.381 31.4326 116.649 32.0314 116.996 32.4886C117.424 33.0547 117.998 33.4902 118.72 33.795C119.468 34.0781 120.257 34.2196 121.085 34.2196C121.887 34.2196 122.649 34.0672 123.37 33.7624C124.119 33.4575 124.693 33.033 125.094 32.4886Z" fill="white"/>
<path d="M139.033 29.6859V37.1264H134.222V19.4899H139.033V26.3485H149.055L153.906 19.4899H159.198L152.944 27.6937L160 37.1264H154.588L149.095 29.6859H139.033Z" fill="white"/>
<path fill-rule="evenodd" clip-rule="evenodd" d="M62.7173 35.4028C62.675 35.4341 62.6351 35.4654 62.5928 35.4962C62.628 35.4694 62.6656 35.4421 62.7008 35.4154C62.7055 35.4108 62.7126 35.4073 62.7173 35.4028ZM64.0046 23.3914C62.9545 21.9859 61.4981 20.9058 59.6142 20.1483C57.6927 19.3887 55.4775 19.0019 52.9499 19.0019C50.4881 19.0019 48.3035 19.4004 46.3843 20.1846C44.4652 20.9689 42.9923 22.0632 41.9423 23.4651C40.8641 24.869 40.3214 26.4764 40.3214 28.31C40.3214 30.1705 40.8664 31.7905 41.9399 33.1878C42.9923 34.5948 44.4628 35.6886 46.382 36.4723C48.3012 37.2324 50.4881 37.6182 52.9499 37.6182C55.5409 37.6182 57.789 37.2308 59.7058 36.4718C61.5897 35.7138 63.0297 34.6473 64.0469 33.2742C64.4438 32.7283 64.7633 32.144 65.0076 31.5198C65.3858 30.5477 65.5784 29.4796 65.5784 28.31C65.5784 26.3921 65.0475 24.7599 64.0046 23.3914ZM44.5748 28.31C44.5748 30.0725 45.4299 31.4582 47.1235 32.4041C48.7749 33.2994 50.3448 33.7206 52.9499 33.7206C54.3664 33.7206 55.0719 33.5938 56.2229 33.3333C57.1414 33.1257 57.9706 32.8333 58.7106 32.4526C60.4536 31.5269 61.325 30.122 61.325 28.31C61.325 26.5476 60.4676 25.172 58.7716 24.2514C57.0991 23.3353 55.5292 22.8995 52.9499 22.8995C50.3754 22.8995 48.8219 23.3212 47.1776 24.211C45.4487 25.1311 44.5748 26.5208 44.5748 28.31Z" fill="white"/>
</svg>
