<svg width="22" height="22" viewBox="0 0 22 22" fill="none" xmlns="http://www.w3.org/2000/svg">
<path d="M12.744 2.63346L20.272 7.52667C20.538 7.69957 20.671 7.78602 20.7674 7.90134C20.8527 8.00342 20.9167 8.12149 20.9558 8.24865C21 8.39229 21 8.55092 21 8.86818V16.1999C21 17.88 21 18.7201 20.673 19.3619C20.3854 19.9263 19.9265 20.3853 19.362 20.6729C18.7202 20.9999 17.8802 20.9999 16.2 20.9999H5.8C4.11984 20.9999 3.27976 20.9999 2.63803 20.6729C2.07354 20.3853 1.6146 19.9263 1.32698 19.3619C1 18.7201 1 17.88 1 16.1999V8.86818C1 8.55092 1 8.39229 1.04417 8.24865C1.08327 8.12149 1.14735 8.00342 1.23265 7.90134C1.32901 7.78602 1.46201 7.69957 1.72802 7.52667L9.25604 2.63346M12.744 2.63346C12.1127 2.22315 11.7971 2.01799 11.457 1.93817C11.1564 1.86761 10.8436 1.86761 10.543 1.93817C10.2029 2.01799 9.88728 2.22315 9.25604 2.63346M12.744 2.63346L19.9681 7.32913C20.312 7.55268 20.484 7.66445 20.5435 7.8062C20.5956 7.93008 20.5956 8.06969 20.5435 8.19356C20.484 8.33531 20.312 8.44709 19.9681 8.67064L12.744 13.3663C12.1127 13.7766 11.7971 13.9818 11.457 14.0616C11.1564 14.1321 10.8436 14.1321 10.543 14.0616C10.2029 13.9818 9.88728 13.7766 9.25604 13.3663L2.03193 8.67064C1.68801 8.44709 1.51604 8.33531 1.45649 8.19356C1.40444 8.06969 1.40444 7.93008 1.45649 7.8062C1.51604 7.66445 1.68801 7.55268 2.03193 7.32913L9.25604 2.63346" stroke="#CCCCCC" stroke-width="2" stroke-linecap="round" stroke-linejoin="round"/>
</svg>
