<svg width="28" height="18" viewBox="0 0 28 18" fill="none" xmlns="http://www.w3.org/2000/svg">
<path d="M15.1788 17.4001C6.15896 17.4001 1.01417 11.0938 0.799805 0.600098H5.31798C5.46639 8.3022 8.79731 11.5647 11.4357 12.2373V0.600098H15.69V7.24274C18.2954 6.95685 21.0327 3.92983 21.9561 0.600098H26.2104C25.8625 2.32699 25.1688 3.96208 24.1729 5.4031C23.177 6.84412 21.9003 8.06006 20.4225 8.97487C22.072 9.81076 23.529 10.9939 24.6972 12.4462C25.8654 13.8985 26.7184 15.5869 27.1998 17.4001H22.5167C22.0846 15.8252 21.2063 14.4155 19.9919 13.3475C18.7775 12.2795 17.281 11.6008 15.69 11.3965V17.4001H15.1788Z" fill="#0077FF"/>
</svg>
