<svg width="28" height="18" viewBox="0 0 28 18" fill="none" xmlns="http://www.w3.org/2000/svg">
<path d="M15.1788 17.4C6.15896 17.4 1.01417 11.0937 0.799805 0.599976H5.31798C5.46639 8.30208 8.79731 11.5645 11.4357 12.2372V0.599976H15.69V7.24262C18.2954 6.95673 21.0327 3.9297 21.9561 0.599976H26.2104C25.8625 2.32687 25.1688 3.96196 24.1729 5.40298C23.177 6.84399 21.9003 8.05994 20.4225 8.97475C22.072 9.81064 23.529 10.9938 24.6972 12.4461C25.8654 13.8984 26.7184 15.5868 27.1998 17.4H22.5167C22.0846 15.8251 21.2063 14.4153 19.9919 13.3474C18.7775 12.2794 17.281 11.6007 15.69 11.3964V17.4H15.1788Z" fill="#A61029"/>
</svg>
